<?xml version="1.0" encoding="utf-8"?>
<!-- Generator: Adobe Illustrator 24.1.1, SVG Export Plug-In . SVG Version: 6.00 Build 0)  -->
<svg version="1.1" id="Layer_2" xmlns="http://www.w3.org/2000/svg" xmlns:xlink="http://www.w3.org/1999/xlink" x="0px" y="0px"
	 viewBox="0 0 720 1080" style="enable-background:new 0 0 720 1080;" xml:space="preserve">
<path d="M240.1,303.7c0,0,191.4-83.4,279.9-17.1c0,0,39.7,36.3,61.4,109c0,0,52.4-106.9,104.7-117.6l10.8,36.3
	c0,0-92.1,76.9-99.3,162.4c0,0-3.6,220.1-12.6,305.6c0,0-5.4,149.6-36.1,64.1c0,0-18.1-25.6-10.8-83.4c0,0-23.5-113.3-61.4-111.1
	c0,0-56,194.5-112,153.9c0,0-68.6-3.2-177-176.9c0,0-121.4-207.9-140.9-282.7c0,0-18.1-115.4,52.4-21.4c0,0,10.8,79.1,83.1,194.5
	c0,0,180.6,324.9,216.7,186c0,0,50.6-74.8,39.7-226.6c0,0-12.9-94-67.9-38.5c0,0-17,8.5-15.2,68.4c0,0-14.4,111.1-74,36.3
	c0,0-43.3-62,32.5-136.8c0,0,77.7-98.3,149.9-4.3c0,0,42.6,100.4,25.3,181.7c0,0,39.7,29.9,52.4,62l18.1-188.1
	c0,0-39.7-186-160.7-147.5c0,0-92.1,21.4-131.8,47c0,0-45.1,29.9-45.1-21.4C222,337.9,218.4,312.3,240.1,303.7z"/>
</svg>
