<?xml version="1.0" encoding="utf-8"?>
<!-- Generator: Adobe Illustrator 24.1.1, SVG Export Plug-In . SVG Version: 6.00 Build 0)  -->
<svg version="1.1" id="Layer_2" xmlns="http://www.w3.org/2000/svg" xmlns:xlink="http://www.w3.org/1999/xlink" x="0px" y="0px"
	 viewBox="0 0 720 1080" style="enable-background:new 0 0 720 1080;" xml:space="preserve">
<path d="M602.2,374.1c-54.7-48.8-123.7,16.3-123.7,16.3l-10.7-70.5l10.7-16.3c42.6-89.5,139.7,0,139.7,0l54.7-93.6
	c-18.2-28.5-91.1-59.1-91.1-59.1c-132.2-33.4-225.6,122.8-225.6,122.8C223.9,138.2,64.4,187,64.4,187c-82,24.4-56.9,86.8-56.9,86.8
	c15.9,70.5,88.9,29.8,88.9,29.8c107.1-43.4,196,67.8,196,67.8C173.8,479.9,41.6,683.3,41.6,683.3c-38.7,105.8,66,73.2,66,73.2
	c41.1-29.8,134.5-35.3,134.5-35.3C287.7,694.2,404,908.4,404,908.4c52.4,62.4,74.5-35.3,74.5-35.3c15.3-27.1,0-314.6,0-314.6
	c1.6-54.2,59.9-67.8,59.9-67.8c102.5-13.5,72.9,113.9,72.9,113.9c-18.3-5.5-43.3,21.7-43.3,21.7c-25,54.2,16,94.9,16,94.9
	c127.6,35.3,132.2-108.5,132.2-108.5C711.6,414.8,602.2,374.1,602.2,374.1z M378.9,677.9c0,0-50.1-75.9-141.3-73.2l141.3-160V677.9z
	"/>
</svg>
